# xmcd
#
# Track frame offsets: 
#        150
#        15765
#        29815
#        54940
#        127790
#        145182
#        161990
#        174587
#        192457
#        206195
#        222537
#        240307
#
# Disc length: 3434 seconds
#
# Revision: 4
# Processed by: cddbd v1.5.2PL0 Copyright (c) Steve Scherf et al.
# Submitted via: ExactAudioCopyFreeDBPlugin 1.0
#
DISCID=aa0d680c
DTITLE=Various Artist - Dance Fever [CD1)
DYEAR=1987
DGENRE=Disco Oldies
TTITLE0=Boney M. - Daddy Cool
TTITLE1=Eruption - I Can't Stand The Rain
TTITLE2=Silver Convention - Fly, Robin Fly
TTITLE3=Santa Esmeralda - Don't Let Me Be Misunderstood
TTITLE4=Amanda Lear - Follow Me
TTITLE5=Penny McLean - Lady Bump
TTITLE6=5000 Volts - I'm On Fire
TTITLE7=Saragossa Band - Rasta Man
TTITLE8=Gibson Brothers - Cuba
TTITLE9=A La Carte - Do Wah Diddy Diddy
TTITLE10=Lipps Inc. - Funky Town
TTITLE11=Nick Straker Band - A Walk In The Park
EXTD=
EXTT0=
EXTT1=
EXTT2=
EXTT3=
EXTT4=
EXTT5=
EXTT6=
EXTT7=
EXTT8=
EXTT9=
EXTT10=
EXTT11=
PLAYORDER=
